<?xml version="1.0" encoding="utf-8"?>
<!-- Generator: Adobe Illustrator 20.0.0, SVG Export Plug-In . SVG Version: 6.00 Build 0)  -->
<svg version="1.1" id="Layer_1" xmlns="http://www.w3.org/2000/svg" xmlns:xlink="http://www.w3.org/1999/xlink" x="0px" y="0px"
	 viewBox="0 0 19.2 19.1" style="enable-background:new 0 0 19.2 19.1;" xml:space="preserve">
<style type="text/css">
	.st0{opacity:0.1;fill:#FFFFFF;}
</style>
<path class="st0" d="M0.1,10.3c0.4,1.4,1.8,2.2,3.2,1.8S5.5,10.3,5.1,9S3.3,6.8,2,7.1C0.6,7.4-0.3,8.9,0.1,10.3 M18.7,6.8L5.6,19
	c-0.1,0-0.2,0.1-0.3,0.1c-0.1,0-0.1-0.1-0.1-0.2l-0.6-2.3c-0.1-0.2,0-0.3,0.1-0.4l10.8-9.9L1,2.9C0.9,2.9,0.7,2.8,0.6,2.6L0,0.3
	c0-0.1-0.1-0.2,0-0.2S0.3,0,0.4,0L18,4C19.2,4.4,19.6,5.9,18.7,6.8"/>
</svg>
