<?xml version="1.0" encoding="utf-8"?>
<!-- Generator: Adobe Illustrator 19.2.1, SVG Export Plug-In . SVG Version: 6.00 Build 0)  -->
<svg version="1.1" id="Layer_1" xmlns="http://www.w3.org/2000/svg" xmlns:xlink="http://www.w3.org/1999/xlink" x="0px" y="0px"
	 viewBox="0 0 200 19.7" style="enable-background:new 0 0 200 19.7;" xml:space="preserve">
<style type="text/css">
	.st0{fill:#DC0D15;}
	.st1{fill:#FFFFFF;}
	.st2{fill-rule:evenodd;clip-rule:evenodd;fill:#FFFFFF;}
	.st3{fill:#808080;}
</style>
<path class="st0" d="M0,9.9c0,1.5,1.2,2.6,2.6,2.6c1.4,0,2.6-1.2,2.6-2.6c0-1.4-1.2-2.6-2.6-2.6C1.2,7.2,0,8.4,0,9.9 M18.9,11.3
	L3,19.7c-0.1,0-0.2,0.1-0.3,0c-0.1,0-0.1-0.1-0.1-0.2v-2.4c0-0.2,0.1-0.3,0.2-0.4l13-6.8L2.8,3C2.7,2.9,2.5,2.8,2.5,2.6V0.2
	c0-0.1,0-0.2,0.1-0.2c0.1,0,0.2,0,0.3,0l16,8.4C20,9.1,20,10.7,18.9,11.3"/>
<path class="st1" d="M71.9,15.6L64.2,3.7c-0.1-0.1-0.1-0.2,0-0.3c0-0.1,0.1-0.1,0.2-0.1h2.6c0.1,0,0.3,0.1,0.4,0.2l5.9,9.6l5.9-9.5
	c0.1-0.1,0.2-0.2,0.4-0.2h2.6c0.1,0,0.2,0.1,0.2,0.1c0,0.1,0,0.2,0,0.3l-7.7,11.9C73.9,16.9,72.8,16.9,71.9,15.6 M131.3,13.9h-10.1
	V3.5c0-0.1-0.1-0.2-0.2-0.2h-2.3c-0.1,0-0.2,0.1-0.2,0.2v11c0,1.2,1.1,1.9,2.4,1.9h10.5c0.1,0,0.2-0.1,0.2-0.2v-2.1
	C131.6,14,131.5,13.9,131.3,13.9 M45.8,16.4c0.1,0,0.2-0.1,0.2-0.2c0-0.1,0-0.2-0.1-0.3l-9.2-4.8h4.4c1.2,0,2.7-0.4,3.5-1.1
	c0.8-0.7,1.4-1.8,1.4-2.8c0-1-0.5-2.1-1.3-2.8c-0.8-0.7-2.4-1.1-3.6-1.1H29.9c-0.1,0-0.2,0.1-0.2,0.2v2.1c0,0.1,0.1,0.2,0.2,0.2h11
	c0.5,0,1.4,0.2,1.8,0.4c0.3,0.2,0.5,0.6,0.5,0.9c0,0.3-0.2,0.7-0.5,0.9c-0.3,0.3-1.3,0.4-1.8,0.4h-7.2c-2.2,0-3.1,2-0.9,3.2l8.1,4.4
	c0.4,0.2,0.6,0.3,0.8,0.3H45.8 M50.9,8c0,0,0,0.5,0,0.6h10c0-0.1,0-0.6,0-0.6c0-1.2-0.9-2.1-2.6-2.1h-4.7C51.9,5.9,50.9,6.7,50.9,8
	 M63.6,8c0,0,0,3,0,3c0,0.1-0.1,0.2-0.2,0.2H50.9c0,0.1,0,0.5,0,0.5c0,1.2,0.9,2.1,2.6,2.1h9.6c0.1,0,0.2,0.1,0.2,0.2v2.1
	c0,0.1-0.1,0.2-0.2,0.2h-9.4c-3.1,0-5.5-1.8-5.5-4.7V8c0-2.8,2.3-4.7,5.5-4.7h4.4C61.3,3.3,63.6,5.1,63.6,8 M85.9,8c0,0,0,0.5,0,0.6
	h9.7c0-0.1,0-0.6,0-0.6c0-1.2-0.9-2.1-2.6-2.1h-4.5C86.9,5.9,85.9,6.7,85.9,8 M98.4,8c0,0,0,3,0,3c0,0.1-0.1,0.2-0.2,0.2H85.9
	c0,0.1,0,0.5,0,0.5c0,1.2,0.9,2.1,2.6,2.1h9.4c0.1,0,0.2,0.1,0.2,0.2v2.1c0,0.1-0.1,0.2-0.2,0.2h-9.2c-3.1,0-5.5-1.8-5.5-4.7V8
	c0-2.8,2.3-4.7,5.5-4.7h4.2C96,3.3,98.4,5.1,98.4,8 M113.3,11.8c0,0,0-3.8,0-3.8c0-1.2-0.9-2.1-2.6-2.1h-4.5c-1.7,0-2.6,0.8-2.6,2.1
	v3.8c0,1.2,0.9,2.1,2.6,2.1h4.5C112.3,13.8,113.2,13,113.3,11.8 M110.5,3.3c3.1,0,5.5,1.8,5.5,4.7v3.8v4.4c0,0.1-0.1,0.2-0.2,0.2
	h-2.2c-0.1,0-0.2-0.1-0.2-0.2v-0.2c-0.8,0.4-1.7,0.6-2.8,0.6h-4.2c-3.1,0-5.5-1.8-5.5-4.7V8c0-2.8,2.3-4.7,5.5-4.7H110.5"/>
<g>
	<path class="st2" d="M145.2,7.9c1.5,0,2.7,0.4,3.5,1.1c0.8,0.7,1.2,1.8,1.2,3.1c0,1.3-0.4,2.4-1.2,3.2c-0.8,0.8-2,1.2-3.6,1.2h-2.8
		v-6.3h1.4v4.9h1.6c1,0,1.8-0.2,2.4-0.7c0.5-0.5,0.8-1.2,0.8-2.2c0-2-1.1-2.9-3.3-2.9h-1.4h-1.4V7.9H145.2z"/>
	<path class="st2" d="M174.2,9c-0.4,0-0.8,0.1-1,0.3c-0.3,0.2-0.4,0.4-0.4,0.8c0,0.3,0.1,0.6,0.4,0.8c0.3,0.2,0.8,0.4,1.7,0.6
		c0.9,0.2,1.5,0.5,2,0.9c0.4,0.4,0.7,0.9,0.7,1.7c0,0.7-0.3,1.4-0.8,1.8c-0.6,0.5-1.3,0.7-2.2,0.7c-1.3,0-2.5-0.5-3.5-1.4l0.9-1.1
		c0.9,0.8,1.7,1.1,2.7,1.1c0.5,0,0.8-0.1,1.1-0.3c0.3-0.2,0.4-0.5,0.4-0.8c0-0.3-0.1-0.6-0.4-0.8c-0.3-0.2-0.7-0.4-1.3-0.5
		c-0.6-0.2-1.1-0.3-1.4-0.4c-0.3-0.1-0.6-0.3-0.9-0.5c-0.5-0.4-0.8-1-0.8-1.8c0-0.8,0.3-1.4,0.9-1.8c0.6-0.4,1.3-0.6,2.1-0.6
		c0.5,0,1.1,0.1,1.6,0.3c0.5,0.2,1,0.4,1.4,0.8l-0.8,1.1c-0.3-0.2-0.6-0.4-1-0.6C175,9.1,174.6,9,174.2,9L174.2,9z"/>
	<polygon class="st2" points="161.1,16.4 159.7,16.4 159.7,7.9 161.9,7.9 164.5,13.3 167,7.9 169.3,7.9 169.3,16.4 167.8,16.4 
		167.8,9.8 164.9,15.7 164.1,15.7 161.1,9.8 	"/>
	<polygon class="st2" points="157.7,7.9 157.7,9.2 153.2,9.2 153.2,11.5 157.3,11.5 157.3,12.8 153.2,12.8 153.2,15.1 157.9,15.1 
		157.9,16.4 151.8,16.4 151.8,7.9 	"/>
</g>
<g>
	<g>
		<path class="st3" d="M187.3,11.6l-1.2-4l-0.8,0l-1.2,4l-1.2-4H182l1.6,5h0.9l1.2-3.9l1.2,3.9h0.9l1.7-5h-0.9L187.3,11.6z
			 M191.5,10.4h2.4V9.7h-2.4V8.3h2.7V7.6h-3.5v5h3.6v-0.8h-2.8V10.4z M198.9,9.9c0.5-0.1,0.9-0.5,0.9-1.1c0-0.8-0.6-1.2-1.7-1.2H196
			v5h2.2c1.1,0,1.8-0.5,1.8-1.4C200,10.5,199.6,10,198.9,9.9z M196.8,8.3h1.3c0.5,0,0.8,0.2,0.8,0.6c0,0.4-0.3,0.7-0.8,0.7h-1.3V8.3
			z M198.1,11.8h-1.3v-1.4h1.3c0.7,0,1,0.3,1,0.7C199.1,11.5,198.8,11.8,198.1,11.8z"/>
	</g>
</g>
</svg>
