<?xml version="1.0" encoding="utf-8"?>
<!-- Generator: Adobe Illustrator 20.0.0, SVG Export Plug-In . SVG Version: 6.00 Build 0)  -->
<svg version="1.1" id="Layer_1" xmlns="http://www.w3.org/2000/svg" xmlns:xlink="http://www.w3.org/1999/xlink" x="0px" y="0px"
	 viewBox="0 0 100 100" style="enable-background:new 0 0 100 100;" xml:space="preserve">
<style type="text/css">
	.st0{fill:#FFFFFF;}
</style>
<g>
	<path class="st0" d="M50,0C22.4,0,0,22.4,0,50c0,27.6,22.4,50,50,50s50-22.4,50-50C100,22.4,77.6,0,50,0z M50,95
		C25.1,95,5,74.9,5,50C5,25.1,25.1,5,50,5s45,20.1,45,45C95,74.9,74.9,95,50,95z"/>
	<g>
		<path class="st0" d="M50,80c-1.7,0-3.1-0.6-4.4-1.8c-1.2-1.2-1.8-2.7-1.8-4.4c0-1.7,0.6-3.1,1.8-4.4c1.2-1.2,2.7-1.8,4.4-1.8
			c1.7,0,3.1,0.6,4.4,1.8c1.2,1.2,1.8,2.7,1.8,4.4c0,1.7-0.6,3.1-1.8,4.4C53.1,79.4,51.7,80,50,80z M44.2,20h11.6v10.7l-2.5,29.9
			h-6.6l-2.5-29.9V20z"/>
	</g>
</g>
</svg>
