<?xml version="1.0" encoding="utf-8"?>
<!-- Generator: Adobe Illustrator 20.0.0, SVG Export Plug-In . SVG Version: 6.00 Build 0)  -->
<svg version="1.1" id="Layer_1" xmlns="http://www.w3.org/2000/svg" xmlns:xlink="http://www.w3.org/1999/xlink" x="0px" y="0px"
	 viewBox="0 0 100 100" style="enable-background:new 0 0 100 100;" xml:space="preserve">
<style type="text/css">
	.st0{fill:#FFFFFF;}
</style>
<g>
	<path class="st0" d="M50,0C22.4,0,0,22.4,0,50c0,27.6,22.4,50,50,50s50-22.4,50-50C100,22.4,77.6,0,50,0z M50,95
		C25.1,95,5,74.9,5,50C5,25.1,25.1,5,50,5s45,20.1,45,45C95,74.9,74.9,95,50,95z"/>
	<g>
		<path class="st0" d="M46,29.6c-1.1-1.1-1.7-2.4-1.7-4c0-1.5,0.6-2.8,1.7-4c1.1-1.1,2.4-1.7,4-1.7c1.5,0,2.8,0.6,4,1.7
			c1.1,1.1,1.7,2.4,1.7,4c0,1.5-0.6,2.8-1.7,4c-1.1,1.1-2.4,1.7-4,1.7C48.5,31.2,47.2,30.7,46,29.6z M54.3,80h-8.9V37.9h8.9V80z"/>
	</g>
</g>
</svg>
