<?xml version="1.0" encoding="utf-8"?>
<!-- Generator: Adobe Illustrator 20.0.0, SVG Export Plug-In . SVG Version: 6.00 Build 0)  -->
<svg version="1.1" id="Layer_1" xmlns="http://www.w3.org/2000/svg" xmlns:xlink="http://www.w3.org/1999/xlink" x="0px" y="0px"
	 viewBox="0 0 131.6 19.7" style="enable-background:new 0 0 131.6 19.7;" xml:space="preserve">
<style type="text/css">
	.st0{opacity:0.5;fill:#FFFFFF;}
</style>
<path class="st0" d="M0,9.9c0,1.5,1.2,2.6,2.6,2.6s2.6-1.2,2.6-2.6S4,7.3,2.6,7.3C1.2,7.2,0,8.4,0,9.9 M18.9,11.3L3,19.7
	c-0.1,0-0.2,0.1-0.3,0c-0.1,0-0.1-0.1-0.1-0.2v-2.4c0-0.2,0.1-0.3,0.2-0.4l13-6.8L2.8,3C2.7,2.9,2.5,2.8,2.5,2.6V0.2
	c0-0.1,0-0.2,0.1-0.2s0.2,0,0.3,0l16,8.4C20,9.1,20,10.7,18.9,11.3"/>
<path class="st0" d="M71.9,15.6L64.2,3.7c-0.1-0.1-0.1-0.2,0-0.3c0-0.1,0.1-0.1,0.2-0.1H67c0.1,0,0.3,0.1,0.4,0.2l5.9,9.6l5.9-9.5
	c0.1-0.1,0.2-0.2,0.4-0.2h2.6c0.1,0,0.2,0.1,0.2,0.1c0,0.1,0,0.2,0,0.3l-7.7,11.9C73.9,16.9,72.8,16.9,71.9,15.6 M131.3,13.9h-10.1
	V3.5c0-0.1-0.1-0.2-0.2-0.2h-2.3c-0.1,0-0.2,0.1-0.2,0.2v11c0,1.2,1.1,1.9,2.4,1.9h10.5c0.1,0,0.2-0.1,0.2-0.2v-2.1
	C131.6,14,131.5,13.9,131.3,13.9 M45.8,16.4c0.1,0,0.2-0.1,0.2-0.2s0-0.2-0.1-0.3l-9.2-4.8h4.4c1.2,0,2.7-0.4,3.5-1.1
	C45.4,9.3,46,8.2,46,7.2s-0.5-2.1-1.3-2.8s-2.4-1.1-3.6-1.1H29.9c-0.1,0-0.2,0.1-0.2,0.2v2.1c0,0.1,0.1,0.2,0.2,0.2h11
	c0.5,0,1.4,0.2,1.8,0.4c0.3,0.2,0.5,0.6,0.5,0.9S43,7.8,42.7,8c-0.3,0.3-1.3,0.4-1.8,0.4h-7.2c-2.2,0-3.1,2-0.9,3.2l8.1,4.4
	c0.4,0.2,0.6,0.3,0.8,0.3h4.1 M50.9,8c0,0,0,0.5,0,0.6h10c0-0.1,0-0.6,0-0.6c0-1.2-0.9-2.1-2.6-2.1h-4.7C51.9,5.9,50.9,6.7,50.9,8
	 M63.6,8v3c0,0.1-0.1,0.2-0.2,0.2H50.9c0,0.1,0,0.5,0,0.5c0,1.2,0.9,2.1,2.6,2.1h9.6c0.1,0,0.2,0.1,0.2,0.2v2.1
	c0,0.1-0.1,0.2-0.2,0.2h-9.4c-3.1,0-5.5-1.8-5.5-4.7V8c0-2.8,2.3-4.7,5.5-4.7h4.4C61.3,3.3,63.6,5.1,63.6,8 M85.9,8c0,0,0,0.5,0,0.6
	h9.7c0-0.1,0-0.6,0-0.6c0-1.2-0.9-2.1-2.6-2.1h-4.5C86.9,5.9,85.9,6.7,85.9,8 M98.4,8v3c0,0.1-0.1,0.2-0.2,0.2H85.9
	c0,0.1,0,0.5,0,0.5c0,1.2,0.9,2.1,2.6,2.1h9.4c0.1,0,0.2,0.1,0.2,0.2v2.1c0,0.1-0.1,0.2-0.2,0.2h-9.2c-3.1,0-5.5-1.8-5.5-4.7V8
	c0-2.8,2.3-4.7,5.5-4.7h4.2C96,3.3,98.4,5.1,98.4,8 M113.3,11.8V8c0-1.2-0.9-2.1-2.6-2.1h-4.5c-1.7,0-2.6,0.8-2.6,2.1v3.8
	c0,1.2,0.9,2.1,2.6,2.1h4.5C112.3,13.8,113.2,13,113.3,11.8 M110.5,3.3c3.1,0,5.5,1.8,5.5,4.7v3.8v4.4c0,0.1-0.1,0.2-0.2,0.2h-2.2
	c-0.1,0-0.2-0.1-0.2-0.2V16c-0.8,0.4-1.7,0.6-2.8,0.6h-4.2c-3.1,0-5.5-1.8-5.5-4.7V8c0-2.8,2.3-4.7,5.5-4.7L110.5,3.3"/>
</svg>
