<?xml version="1.0" encoding="utf-8"?>
<!-- Generator: Adobe Illustrator 20.0.0, SVG Export Plug-In . SVG Version: 6.00 Build 0)  -->
<svg version="1.1" id="Layer_1" xmlns="http://www.w3.org/2000/svg" xmlns:xlink="http://www.w3.org/1999/xlink" x="0px" y="0px"
	 viewBox="0 0 100 100" style="enable-background:new 0 0 100 100;" xml:space="preserve">
<style type="text/css">
	.st0{fill:#7C7C7C;}
</style>
<path class="st0" d="M92.3,50c0,9.2-3.1,17.7-7.7,24.6c-3.1-10-11.5-18.5-22.3-22.3c3.1-3.1,4.6-7.7,4.6-12.3
	c0-10-7.7-17.7-16.9-17.7S33.1,30,33.1,40c0,4.6,1.5,9.2,4.6,12.3c-11.5,3.1-20,11.5-23.1,21.5C10,66.9,7.7,58.5,7.7,50
	C7.7,26.9,26.2,7.7,50,7.7S92.3,26.9,92.3,50 M50,50c-5.4,0-10-4.6-10-10s4.6-10,10-10s10,4.6,10,10C59.2,45.4,55.4,50,50,50
	 M20.8,80.8L20.8,80.8c0.8-13.1,13.1-23.1,28.5-23.1c16.2,0,28.5,10.8,28.5,23.8l0,0C70,88.5,60,92.3,49.2,92.3S28.5,87.7,20.8,80.8
	 M100,50c0-27.7-22.3-50-50-50S0,22.3,0,50s22.3,50,50,50S100,77.7,100,50"/>
</svg>
